<?xml version="1.0" encoding="UTF-8" standalone="no"?>
<svg
   xmlns:dc="http://purl.org/dc/elements/1.1/"
   xmlns:cc="http://creativecommons.org/ns#"
   xmlns:rdf="http://www.w3.org/1999/02/22-rdf-syntax-ns#"
   xmlns:svg="http://www.w3.org/2000/svg"
   xmlns="http://www.w3.org/2000/svg"
   viewBox="0 0 413.16252 113.5304"
   height="113.5304"
   width="413.16254"
   xml:space="preserve"
   id="svg2"
   version="1.1"><metadata
     id="metadata8"><rdf:RDF><cc:Work
         rdf:about=""><dc:format>image/svg+xml</dc:format><dc:type
           rdf:resource="http://purl.org/dc/dcmitype/StillImage" /><dc:title></dc:title></cc:Work></rdf:RDF></metadata><defs
     id="defs6"><clipPath
       id="clipPath20"
       clipPathUnits="userSpaceOnUse"><path
         id="path18"
         d="M 0,600 H 800 V 0 H 0 Z" /></clipPath></defs><g
     transform="matrix(1.3333333,0,0,-1.3333333,-336.92148,243.03611)"
     id="g10"><g
       id="g14"><g
         clip-path="url(#clipPath20)"
         id="g16"><g
           transform="translate(302.79,470.2188)"
           id="g22"><path
             id="path24"
             style="fill:#252d2a;fill-opacity:1;fill-rule:nonzero;stroke:none"
             d="m 0,0 c 0.757,0.512 1.606,0.768 2.55,0.768 1.187,0 2.201,-0.369 3.041,-1.107 0.839,-0.736 1.26,-1.741 1.26,-3.011 0,-0.614 -0.123,-1.29 -0.369,-2.026 l -12.78,-34.96 c -0.369,-0.984 -1.014,-1.754 -1.935,-2.307 -0.922,-0.552 -1.936,-0.828 -3.042,-0.828 -1.106,0 -2.111,0.276 -3.011,0.828 -0.902,0.553 -1.536,1.323 -1.904,2.307 l -9.156,25.866 -9.401,-25.866 c -0.368,-0.984 -1.003,-1.754 -1.903,-2.307 -0.902,-0.552 -1.906,-0.828 -3.011,-0.828 -1.067,0 -2.059,0.276 -2.981,0.828 -0.921,0.553 -1.566,1.323 -1.935,2.307 l -12.779,34.96 c -0.248,0.695 -0.37,1.352 -0.37,1.965 0,1.269 0.451,2.284 1.351,3.042 0.901,0.758 1.967,1.137 3.195,1.137 0.984,0 1.874,-0.256 2.674,-0.768 0.799,-0.514 1.382,-1.261 1.751,-2.242 l 9.462,-27.22 9.83,27.096 c 0.37,0.983 0.953,1.741 1.752,2.274 0.799,0.53 1.648,0.798 2.55,0.798 0.941,0 1.803,-0.268 2.581,-0.798 0.777,-0.533 1.351,-1.311 1.72,-2.336 l 9.401,-27.527 9.769,27.713 C -1.321,-1.261 -0.759,-0.514 0,0" /></g><g
           transform="translate(332.7422,442.4766)"
           id="g26"><path
             id="path28"
             style="fill:#252d2a;fill-opacity:1;fill-rule:nonzero;stroke:none"
             d="m 0,0 c 0,2.908 -0.584,5.079 -1.751,6.513 -1.167,1.433 -2.837,2.15 -5.008,2.15 -4.507,0 -6.759,-2.888 -6.759,-8.663 0,-5.775 2.252,-8.664 6.759,-8.664 C -2.253,-8.664 0,-5.775 0,0 m -15.177,-13.795 c -2.417,1.291 -4.28,3.115 -5.591,5.469 -1.311,2.356 -1.966,5.131 -1.966,8.326 0,3.195 0.655,5.97 1.966,8.325 1.311,2.355 3.174,4.168 5.591,5.438 2.417,1.27 5.223,1.904 8.418,1.904 3.196,0 6,-0.634 8.418,-1.904 C 4.075,12.493 5.938,10.68 7.25,8.325 8.561,5.97 9.217,3.195 9.217,0 c 0,-3.195 -0.656,-5.97 -1.967,-8.326 -1.312,-2.354 -3.175,-4.178 -5.591,-5.469 -2.418,-1.289 -5.222,-1.934 -8.418,-1.934 -3.195,0 -6.001,0.645 -8.418,1.934" /></g><g
           transform="translate(389.085,457.2842)"
           id="g30"><path
             id="path32"
             style="fill:#252d2a;fill-opacity:1;fill-rule:nonzero;stroke:none"
             d="m 0,0 c 0.655,0.45 1.353,0.676 2.09,0.676 1.146,0 2.171,-0.39 3.072,-1.167 0.901,-0.78 1.352,-1.743 1.352,-2.888 0,-0.492 -0.123,-1.045 -0.369,-1.66 l -10.077,-22.61 c -0.369,-0.903 -0.964,-1.588 -1.782,-2.059 -0.819,-0.471 -1.68,-0.707 -2.58,-0.707 -0.943,0 -1.812,0.236 -2.611,0.707 -0.799,0.471 -1.383,1.156 -1.751,2.059 l -6.574,15.299 -6.33,-15.299 c -0.369,-0.903 -0.942,-1.588 -1.72,-2.059 -0.779,-0.471 -1.658,-0.707 -2.642,-0.707 -0.943,0 -1.823,0.236 -2.642,0.707 -0.82,0.471 -1.413,1.156 -1.782,2.059 l -10.015,22.61 c -0.245,0.574 -0.368,1.127 -0.368,1.66 0,1.145 0.48,2.108 1.443,2.888 0.963,0.777 2.058,1.167 3.287,1.167 0.819,0 1.567,-0.226 2.244,-0.676 0.675,-0.45 1.197,-1.105 1.567,-1.965 l 6.574,-16.528 6.696,16.405 c 0.37,0.859 0.912,1.525 1.629,1.997 0.717,0.47 1.505,0.706 2.365,0.706 0.861,0 1.659,-0.225 2.397,-0.676 0.737,-0.453 1.29,-1.127 1.659,-2.027 l 6.82,-16.405 6.513,16.528 C -1.167,-1.105 -0.655,-0.45 0,0" /></g><g
           transform="translate(432.9199,485.3447)"
           id="g34"><path
             id="path36"
             style="fill:#00b97e;fill-opacity:1;fill-rule:nonzero;stroke:none"
             d="m 0,0 c -2.894,3.323 -7.081,5.229 -11.489,5.229 h -0.277 c -4.408,0 -8.595,-1.906 -11.49,-5.229 -2.895,-3.323 -4.209,-7.733 -3.602,-12.099 l 2.843,-20.522 c 0.247,-1.786 1.9,-3.036 3.686,-2.785 1.788,0.246 3.035,1.897 2.788,3.684 l -2.845,20.521 c -0.344,2.492 0.405,5.012 2.058,6.909 1.652,1.898 4.045,2.985 6.562,2.985 h 0.277 c 2.515,0 4.908,-1.087 6.562,-2.985 1.652,-1.897 2.403,-4.417 2.056,-6.909 l -4.781,-34.511 c -0.27,-1.943 -1.952,-3.404 -3.91,-3.404 h -0.129 c -1.96,0 -3.641,1.461 -3.912,3.404 -0.248,1.791 -1.896,3.036 -3.684,2.788 -1.787,-0.249 -3.035,-1.897 -2.788,-3.682 0.717,-5.158 5.178,-9.047 10.384,-9.047 h 0.129 c 5.206,0 9.667,3.889 10.382,9.047 l 4.784,34.507 C 4.207,-7.733 2.896,-3.323 0,0" /></g><g
           transform="translate(421.291,411.9629)"
           id="g38"><path
             id="path40"
             style="fill:#00b97e;fill-opacity:1;fill-rule:nonzero;stroke:none"
             d="m 0,0 c -2.35,0 -4.26,1.91 -4.26,4.26 0,2.349 1.912,4.261 4.26,4.261 2.351,0 4.261,-1.912 4.261,-4.261 C 4.263,1.91 2.351,0 0,0 m 0,15.057 c -5.952,0 -10.796,-4.842 -10.796,-10.797 0,-5.951 4.844,-10.797 10.796,-10.797 5.955,0 10.797,4.846 10.797,10.797 C 10.799,10.215 5.955,15.057 0,15.057" /></g><g
           transform="translate(477.5205,435.8398)"
           id="g42"><path
             id="path44"
             style="fill:#252d2a;fill-opacity:1;fill-rule:nonzero;stroke:none"
             d="m 0,0 c 1.146,0.861 1.72,2.254 1.72,4.178 0,1.926 -0.574,3.34 -1.72,4.24 -1.147,0.9 -2.991,1.353 -5.528,1.353 h -10.139 v -11.06 h 10.139 c 2.537,0 4.381,0.43 5.528,1.289 m -15.667,17.083 h 9.031 c 2.458,0 4.271,0.42 5.438,1.26 1.168,0.838 1.751,2.119 1.751,3.84 0,1.801 -0.583,3.122 -1.751,3.963 -1.167,0.838 -2.98,1.258 -5.438,1.258 h -9.031 z M 8.634,9.985 C 10.005,8.162 10.69,5.92 10.69,3.258 10.69,-0.389 9.349,-3.277 6.667,-5.406 3.983,-7.537 0.286,-8.602 -4.425,-8.602 h -16.096 c -1.435,0 -2.542,0.391 -3.319,1.168 -0.777,0.778 -1.167,1.883 -1.167,3.317 v 34.348 c 0,1.434 0.39,2.54 1.167,3.318 0.777,0.778 1.884,1.168 3.319,1.168 h 15.483 c 4.505,0 8.08,-1.005 10.722,-3.011 2.642,-2.008 3.963,-4.753 3.963,-8.232 0,-2.254 -0.606,-4.231 -1.813,-5.932 -1.21,-1.699 -2.878,-2.939 -5.008,-3.717 2.498,-0.736 4.435,-2.016 5.808,-3.84" /></g><g
           transform="translate(521.9131,456.8535)"
           id="g46"><path
             id="path48"
             style="fill:#252d2a;fill-opacity:1;fill-rule:nonzero;stroke:none"
             d="m 0,0 c 0.838,-0.777 1.258,-1.843 1.258,-3.194 v -22.55 c 0,-1.27 -0.441,-2.293 -1.321,-3.07 -0.88,-0.78 -2.017,-1.17 -3.411,-1.17 -1.31,0 -2.353,0.369 -3.133,1.107 -0.778,0.736 -1.167,1.719 -1.167,2.949 v 0.614 c -0.943,-1.557 -2.181,-2.745 -3.717,-3.563 -1.537,-0.818 -3.267,-1.228 -5.192,-1.228 -3.809,0 -6.646,1.054 -8.51,3.164 -1.864,2.107 -2.794,5.293 -2.794,9.554 v 14.193 c 0,1.351 0.418,2.417 1.258,3.194 0.839,0.779 1.976,1.169 3.41,1.169 1.433,0 2.56,-0.39 3.38,-1.169 0.82,-0.777 1.229,-1.843 1.229,-3.194 v -14.378 c 0,-1.803 0.378,-3.134 1.137,-3.994 0.758,-0.86 1.914,-1.29 3.471,-1.29 1.801,0 3.265,0.616 4.394,1.842 1.124,1.231 1.689,2.848 1.689,4.855 v 12.965 c 0,1.351 0.409,2.417 1.228,3.194 0.82,0.779 1.944,1.169 3.38,1.169 1.433,0 2.57,-0.39 3.411,-1.169" /></g><g
           transform="translate(535.2129,427.3613)"
           id="g50"><path
             id="path52"
             style="fill:#252d2a;fill-opacity:1;fill-rule:nonzero;stroke:none"
             d="m 0,0 c -1.844,0.408 -3.461,1.064 -4.854,1.967 -0.614,0.367 -1.084,0.861 -1.414,1.474 -0.327,0.614 -0.49,1.311 -0.49,2.09 0,0.942 0.266,1.729 0.799,2.365 0.531,0.633 1.188,0.953 1.965,0.953 0.533,0 1.066,-0.093 1.599,-0.277 0.531,-0.183 1.084,-0.4 1.658,-0.646 C 0.41,7.393 1.536,6.975 2.643,6.668 3.749,6.359 5.12,6.205 6.76,6.205 c 1.433,0 2.55,0.227 3.347,0.677 0.8,0.45 1.2,1.063 1.2,1.844 0,0.573 -0.176,1.034 -0.523,1.382 -0.349,0.347 -0.993,0.665 -1.936,0.952 -0.944,0.286 -2.438,0.635 -4.485,1.045 -3.646,0.695 -6.267,1.741 -7.864,3.134 -1.598,1.392 -2.397,3.337 -2.397,5.835 0,1.844 0.563,3.503 1.69,4.978 1.127,1.475 2.673,2.633 4.638,3.472 1.966,0.838 4.179,1.258 6.636,1.258 1.761,0 3.482,-0.223 5.162,-0.674 1.679,-0.452 3.173,-1.087 4.484,-1.906 1.27,-0.777 1.906,-1.924 1.906,-3.441 0,-0.983 -0.266,-1.803 -0.8,-2.457 -0.533,-0.657 -1.187,-0.983 -1.966,-0.983 -0.943,0 -2.068,0.369 -3.378,1.106 -1.026,0.531 -1.956,0.931 -2.796,1.197 -0.84,0.268 -1.834,0.4 -2.981,0.4 -1.27,0 -2.273,-0.236 -3.01,-0.707 -0.738,-0.47 -1.107,-1.116 -1.107,-1.933 0,-0.862 0.431,-1.518 1.29,-1.968 0.862,-0.451 2.521,-0.902 4.978,-1.352 2.744,-0.533 4.894,-1.177 6.453,-1.935 1.554,-0.758 2.681,-1.709 3.378,-2.857 0.696,-1.147 1.044,-2.602 1.044,-4.363 0,-2.907 -1.198,-5.221 -3.594,-6.942 -2.395,-1.719 -5.602,-2.58 -9.615,-2.58 -2.5,0 -4.67,0.205 -6.514,0.613" /></g><g
           transform="translate(310.41712,161.92219)"
           id="g54"><path
             id="path56"
             style="fill:#ffffff;fill-opacity:1;fill-rule:nonzero;stroke:none"
             d="m 0,0 c 0.757,0.512 1.606,0.768 2.55,0.768 1.187,0 2.201,-0.369 3.041,-1.107 0.839,-0.736 1.26,-1.741 1.26,-3.011 0,-0.614 -0.123,-1.29 -0.369,-2.026 l -12.78,-34.96 c -0.369,-0.984 -1.014,-1.754 -1.935,-2.307 -0.922,-0.552 -1.936,-0.828 -3.042,-0.828 -1.106,0 -2.111,0.276 -3.011,0.828 -0.902,0.553 -1.536,1.323 -1.904,2.307 l -9.156,25.866 -9.401,-25.866 c -0.368,-0.984 -1.003,-1.754 -1.903,-2.307 -0.902,-0.552 -1.906,-0.828 -3.011,-0.828 -1.067,0 -2.059,0.276 -2.981,0.828 -0.921,0.553 -1.566,1.323 -1.935,2.307 l -12.779,34.96 c -0.248,0.695 -0.37,1.352 -0.37,1.965 0,1.269 0.451,2.284 1.351,3.042 0.901,0.758 1.967,1.137 3.195,1.137 0.984,0 1.874,-0.256 2.674,-0.768 0.799,-0.514 1.382,-1.261 1.751,-2.242 l 9.462,-27.22 9.83,27.096 c 0.37,0.983 0.953,1.741 1.752,2.274 0.799,0.53 1.648,0.798 2.55,0.798 0.941,0 1.803,-0.268 2.581,-0.798 0.777,-0.533 1.351,-1.311 1.72,-2.336 l 9.401,-27.527 9.769,27.713 C -1.321,-1.261 -0.759,-0.514 0,0" /></g><g
           transform="translate(340.36932,134.17999)"
           id="g58"><path
             id="path60"
             style="fill:#ffffff;fill-opacity:1;fill-rule:nonzero;stroke:none"
             d="m 0,0 c 0,2.908 -0.584,5.079 -1.751,6.513 -1.167,1.433 -2.837,2.15 -5.008,2.15 -4.507,0 -6.759,-2.888 -6.759,-8.663 0,-5.775 2.252,-8.664 6.759,-8.664 C -2.253,-8.664 0,-5.775 0,0 m -15.177,-13.795 c -2.417,1.291 -4.28,3.115 -5.591,5.469 -1.311,2.356 -1.966,5.131 -1.966,8.326 0,3.195 0.655,5.97 1.966,8.325 1.311,2.355 3.174,4.168 5.591,5.438 2.417,1.27 5.223,1.904 8.418,1.904 3.196,0 6,-0.634 8.418,-1.904 C 4.075,12.493 5.938,10.68 7.25,8.325 8.561,5.97 9.217,3.195 9.217,0 c 0,-3.195 -0.656,-5.97 -1.967,-8.326 -1.312,-2.354 -3.175,-4.178 -5.591,-5.469 -2.418,-1.289 -5.222,-1.934 -8.418,-1.934 -3.195,0 -6.001,0.645 -8.418,1.934" /></g><g
           transform="translate(396.71212,148.98759)"
           id="g62"><path
             id="path64"
             style="fill:#ffffff;fill-opacity:1;fill-rule:nonzero;stroke:none"
             d="m 0,0 c 0.655,0.45 1.353,0.676 2.09,0.676 1.146,0 2.171,-0.39 3.072,-1.167 0.901,-0.78 1.352,-1.743 1.352,-2.888 0,-0.492 -0.123,-1.045 -0.369,-1.66 l -10.077,-22.61 c -0.369,-0.903 -0.964,-1.588 -1.782,-2.059 -0.819,-0.471 -1.68,-0.707 -2.58,-0.707 -0.943,0 -1.812,0.236 -2.611,0.707 -0.799,0.471 -1.383,1.156 -1.751,2.059 l -6.574,15.299 -6.33,-15.299 c -0.369,-0.903 -0.942,-1.588 -1.72,-2.059 -0.779,-0.471 -1.658,-0.707 -2.642,-0.707 -0.943,0 -1.823,0.236 -2.642,0.707 -0.82,0.471 -1.413,1.156 -1.782,2.059 l -10.015,22.61 c -0.245,0.574 -0.368,1.127 -0.368,1.66 0,1.145 0.48,2.108 1.443,2.888 0.963,0.777 2.058,1.167 3.287,1.167 0.819,0 1.567,-0.226 2.244,-0.676 0.675,-0.45 1.197,-1.105 1.567,-1.965 l 6.574,-16.528 6.696,16.405 c 0.37,0.859 0.912,1.525 1.629,1.997 0.717,0.47 1.505,0.706 2.365,0.706 0.861,0 1.659,-0.225 2.397,-0.676 0.737,-0.453 1.29,-1.127 1.659,-2.027 l 6.82,-16.405 6.513,16.528 C -1.167,-1.105 -0.655,-0.45 0,0" /></g><g
           transform="translate(440.54702,177.04809)"
           id="g66"><path
             id="path68"
             style="fill:#19513d;fill-opacity:1;fill-rule:nonzero;stroke:none"
             d="m 0,0 c -2.894,3.323 -7.081,5.229 -11.489,5.229 h -0.277 c -4.408,0 -8.595,-1.906 -11.49,-5.229 -2.895,-3.323 -4.209,-7.733 -3.602,-12.099 l 2.843,-20.522 c 0.247,-1.786 1.9,-3.036 3.686,-2.785 1.788,0.246 3.035,1.897 2.788,3.684 l -2.845,20.521 c -0.344,2.492 0.405,5.012 2.058,6.909 1.652,1.898 4.045,2.985 6.562,2.985 h 0.277 c 2.515,0 4.908,-1.087 6.562,-2.985 1.652,-1.897 2.403,-4.417 2.056,-6.909 l -4.781,-34.511 c -0.27,-1.943 -1.952,-3.404 -3.91,-3.404 h -0.129 c -1.96,0 -3.641,1.461 -3.912,3.404 -0.248,1.791 -1.896,3.036 -3.684,2.788 -1.787,-0.249 -3.035,-1.897 -2.788,-3.682 0.717,-5.158 5.178,-9.047 10.384,-9.047 h 0.129 c 5.206,0 9.667,3.889 10.382,9.047 l 4.784,34.507 C 4.207,-7.733 2.896,-3.323 0,0" /></g><g
           transform="translate(428.91812,103.66629)"
           id="g70"><path
             id="path72"
             style="fill:#19513d;fill-opacity:1;fill-rule:nonzero;stroke:none"
             d="m 0,0 c -2.35,0 -4.26,1.91 -4.26,4.26 0,2.349 1.912,4.261 4.26,4.261 2.351,0 4.261,-1.912 4.261,-4.261 C 4.263,1.91 2.351,0 0,0 m 0,15.057 c -5.952,0 -10.796,-4.842 -10.796,-10.797 0,-5.951 4.844,-10.797 10.796,-10.797 5.955,0 10.797,4.846 10.797,10.797 C 10.799,10.215 5.955,15.057 0,15.057" /></g><g
           transform="translate(485.14762,127.54319)"
           id="g74"><path
             id="path76"
             style="fill:#ffffff;fill-opacity:1;fill-rule:nonzero;stroke:none"
             d="m 0,0 c 1.146,0.861 1.72,2.254 1.72,4.178 0,1.926 -0.574,3.34 -1.72,4.24 -1.147,0.9 -2.991,1.353 -5.528,1.353 h -10.139 v -11.06 h 10.139 c 2.537,0 4.381,0.43 5.528,1.289 m -15.667,17.083 h 9.031 c 2.458,0 4.271,0.42 5.438,1.26 1.168,0.838 1.751,2.119 1.751,3.84 0,1.801 -0.583,3.122 -1.751,3.963 -1.167,0.838 -2.98,1.258 -5.438,1.258 h -9.031 z M 8.634,9.985 C 10.005,8.162 10.69,5.92 10.69,3.258 10.69,-0.389 9.349,-3.277 6.667,-5.406 3.983,-7.537 0.286,-8.602 -4.425,-8.602 h -16.096 c -1.435,0 -2.542,0.391 -3.319,1.168 -0.777,0.778 -1.167,1.883 -1.167,3.317 v 34.348 c 0,1.434 0.39,2.54 1.167,3.318 0.777,0.778 1.884,1.168 3.319,1.168 h 15.483 c 4.505,0 8.08,-1.005 10.722,-3.011 2.642,-2.008 3.963,-4.753 3.963,-8.232 0,-2.254 -0.606,-4.231 -1.813,-5.932 -1.21,-1.699 -2.878,-2.939 -5.008,-3.717 2.498,-0.736 4.435,-2.016 5.808,-3.84" /></g><g
           transform="translate(529.54022,148.55689)"
           id="g78"><path
             id="path80"
             style="fill:#ffffff;fill-opacity:1;fill-rule:nonzero;stroke:none"
             d="m 0,0 c 0.838,-0.777 1.258,-1.843 1.258,-3.194 v -22.55 c 0,-1.27 -0.441,-2.293 -1.321,-3.07 -0.88,-0.78 -2.017,-1.17 -3.411,-1.17 -1.31,0 -2.353,0.369 -3.133,1.107 -0.778,0.736 -1.167,1.719 -1.167,2.949 v 0.614 c -0.943,-1.557 -2.181,-2.745 -3.717,-3.563 -1.537,-0.818 -3.267,-1.228 -5.192,-1.228 -3.809,0 -6.646,1.054 -8.51,3.164 -1.864,2.107 -2.794,5.293 -2.794,9.554 v 14.193 c 0,1.351 0.418,2.417 1.258,3.194 0.839,0.779 1.976,1.169 3.41,1.169 1.433,0 2.56,-0.39 3.38,-1.169 0.82,-0.777 1.229,-1.843 1.229,-3.194 v -14.378 c 0,-1.803 0.378,-3.134 1.137,-3.994 0.758,-0.86 1.914,-1.29 3.471,-1.29 1.801,0 3.265,0.616 4.394,1.842 1.124,1.231 1.689,2.848 1.689,4.855 v 12.965 c 0,1.351 0.409,2.417 1.228,3.194 0.82,0.779 1.944,1.169 3.38,1.169 1.433,0 2.57,-0.39 3.411,-1.169" /></g><g
           transform="translate(542.84002,119.06469)"
           id="g82"><path
             id="path84"
             style="fill:#ffffff;fill-opacity:1;fill-rule:nonzero;stroke:none"
             d="m 0,0 c -1.844,0.408 -3.461,1.064 -4.854,1.967 -0.614,0.367 -1.084,0.861 -1.414,1.474 -0.327,0.614 -0.49,1.311 -0.49,2.09 0,0.942 0.266,1.729 0.799,2.365 0.531,0.633 1.188,0.953 1.965,0.953 0.533,0 1.066,-0.093 1.599,-0.277 0.531,-0.183 1.084,-0.4 1.658,-0.646 C 0.41,7.393 1.536,6.975 2.643,6.668 3.749,6.359 5.12,6.205 6.76,6.205 c 1.433,0 2.55,0.227 3.347,0.677 0.8,0.45 1.2,1.063 1.2,1.844 0,0.573 -0.176,1.034 -0.523,1.382 -0.349,0.347 -0.993,0.665 -1.936,0.952 -0.944,0.286 -2.438,0.635 -4.485,1.045 -3.646,0.695 -6.267,1.741 -7.864,3.134 -1.598,1.392 -2.397,3.337 -2.397,5.835 0,1.844 0.563,3.503 1.69,4.978 1.127,1.475 2.673,2.633 4.638,3.472 1.966,0.838 4.179,1.258 6.636,1.258 1.761,0 3.482,-0.223 5.162,-0.674 1.679,-0.452 3.173,-1.087 4.484,-1.906 1.27,-0.777 1.906,-1.924 1.906,-3.441 0,-0.983 -0.266,-1.803 -0.8,-2.457 -0.533,-0.657 -1.187,-0.983 -1.966,-0.983 -0.943,0 -2.068,0.369 -3.378,1.106 -1.026,0.531 -1.956,0.931 -2.796,1.197 -0.84,0.268 -1.834,0.4 -2.981,0.4 -1.27,0 -2.273,-0.236 -3.01,-0.707 -0.738,-0.47 -1.107,-1.116 -1.107,-1.933 0,-0.862 0.431,-1.518 1.29,-1.968 0.862,-0.451 2.521,-0.902 4.978,-1.352 2.744,-0.533 4.894,-1.177 6.453,-1.935 1.554,-0.758 2.681,-1.709 3.378,-2.857 0.696,-1.147 1.044,-2.602 1.044,-4.363 0,-2.907 -1.198,-5.221 -3.594,-6.942 -2.395,-1.719 -5.602,-2.58 -9.615,-2.58 -2.5,0 -4.67,0.205 -6.514,0.613" /></g></g></g></g></svg>